<svg role="img" viewBox="0 0 132.29167 132.29166" xmlns="http://www.w3.org/2000/svg">
  <title>RabbitMQ</title>
  <path
    d="M 127.32189 54.270409 H 84.999977 a 5.2690424 5.2690424 0 0 1 -5.302308 -5.302309 V 6.6461888 A 5.2690424 5.2690424 0 0 0 74.39536 1.3438804 H 58.555783 A 5.2690424 5.2690424 0 0 0 53.253474 6.6461888 V 48.9681 a 5.2690424 5.2690424 0 0 1 -5.302309 5.302309 H 32.111589 A 5.2690424 5.2690424 0 0 1 26.80928 48.9681 V 6.6461888 A 5.2690424 5.2690424 0 0 0 21.506972 1.3106149 H 5.6341299 A 5.2690424 5.2690424 0 0 0 0.3650864 6.6461888 V 128.31903 a 5.2690424 5.2690424 0 0 0 5.3023089 5.30231 H 127.32189 a 5.2690424 5.2690424 0 0 0 5.30231 -5.30231 V 59.572717 a 5.2690424 5.2690424 0 0 0 -5.30231 -5.302308 z m -21.17517 44.908545 a 7.9542581 7.9542581 0 0 1 -7.95425 7.987516 H 87.573659 a 7.9542581 7.9542581 0 0 1 -7.954257 -7.987516 V 88.593818 a 7.9542581 7.9542581 0 0 1 7.954257 -7.987517 h 10.618811 a 7.9542581 7.9542581 0 0 1 7.95425 7.987517 z"
    fill="#FF6600"
  />
</svg>
