<svg width="159" height="48" viewBox="0 0 159 48" fill="none" xmlns="http://www.w3.org/2000/svg">
<g clip-path="url(#clip0_1_798)">
<path d="M93.932 39.4721C93.6905 39.3017 93.4059 39.1653 93.0955 39.0461C92.7764 38.9268 92.4573 38.8246 92.1382 38.7223C91.8277 38.6371 90.0598 38.2623 89.7062 38.1004C88.7404 37.6403 89.1888 37.1717 89.3527 37.061C89.4993 36.9673 89.6545 36.9332 89.8615 36.8906C90.0598 36.848 90.422 36.8054 91.0602 36.8054C91.4052 36.8054 91.8019 36.848 92.0865 36.8991C92.371 36.9502 92.6298 37.0184 92.8454 37.078C93.0092 37.1206 93.0868 37.1547 93.3456 37.1717C93.587 37.1973 93.7509 37.078 93.8716 36.9843C93.9751 36.9076 94.0441 36.7372 94.0441 36.6605C94.0441 36.5583 94.0441 36.2601 94.0441 36.2175C94.0441 35.996 93.8199 35.8171 93.5353 35.7319C93.5094 35.7234 93.4749 35.7149 93.4404 35.6978C93.2421 35.6382 93.0265 35.5871 92.7764 35.5445C92.5263 35.5019 92.2503 35.4593 91.9657 35.4337C91.6725 35.4082 91.3879 35.3911 91.0947 35.3911C90.5428 35.3911 90.0081 35.4337 89.5079 35.5274C89.0077 35.6126 88.5765 35.7489 88.2143 35.9364C87.8435 36.1153 87.5502 36.3453 87.3346 36.6265C87.1191 36.8991 87.0156 37.2228 87.0156 37.5807C87.0156 37.8959 87.0932 38.1685 87.2398 38.3986C87.3864 38.6286 87.5934 38.8246 87.8262 38.9864C88.0677 39.1568 88.3437 39.2931 88.6455 39.4124C89.3354 39.685 91.2758 40.0173 92.052 40.2729C92.8281 40.5285 92.7591 41.3634 92.2589 41.5935C91.7501 41.8235 91.1033 41.832 90.3703 41.832C89.9132 41.832 89.3958 41.7809 89.0508 41.7127C88.7059 41.6446 88.4989 41.5594 88.2574 41.4827C88.0073 41.406 87.7227 41.2186 87.4468 41.2186C87.1104 41.2186 86.8086 41.3634 86.8086 41.6616C86.8086 41.7894 86.8086 41.7979 86.8086 41.832C86.8086 41.8661 86.8086 41.9172 86.8086 41.9683V42.275C86.8086 42.488 86.9379 42.6073 87.0587 42.6755C87.1708 42.7436 87.2484 42.7777 87.4295 42.8459C87.6106 42.9055 87.8435 42.9736 88.1194 43.0333C88.3954 43.0929 88.7145 43.1526 89.0767 43.1952C89.4389 43.2378 89.7149 43.2633 90.1288 43.2633C90.7497 43.2633 91.4569 43.2122 92.0002 43.11C92.5435 43.0077 93.0178 42.8629 93.4318 42.6499C93.8371 42.4539 94.1648 42.1984 94.3977 41.9002C94.6391 41.602 94.7599 41.2527 94.7599 40.8522C94.7599 40.5455 94.6823 40.2814 94.527 40.0599C94.3718 39.8384 94.1735 39.6424 93.932 39.4721Z" fill="#A0A0A0"/>
<path d="M119.071 36.0554C118.235 35.3994 117.528 35.3057 115.777 35.3057H113.078C113.078 35.3057 113.034 35.3057 113 35.3227H112.965C112.534 35.3227 112.181 35.672 112.181 36.098V42.4707C112.181 42.8967 112.534 43.246 112.965 43.246H113.103C113.103 43.246 113.147 43.246 113.164 43.246H115.587C117.321 43.246 118.088 43.1779 118.968 42.5304C120.003 41.7636 120.218 41.0479 120.218 39.1651C120.218 37.4697 120.054 36.8392 119.063 36.0639L119.071 36.0554ZM118.028 41.2524L117.881 41.3717C117.579 41.6699 116.475 41.7977 115.579 41.7977H114.294C114.104 41.7892 113.905 41.6784 113.905 41.4824V37.2056C113.905 37.0096 114.121 36.7285 114.311 36.7285L115.544 36.7114C116.57 36.7114 117.433 36.737 118.054 37.3419C118.416 37.6997 118.485 38.2024 118.485 39.2247C118.485 40.3664 118.459 40.8264 118.019 41.2609L118.028 41.2524Z" fill="#A0A0A0"/>
<path d="M107.101 35.3911H99.9258C99.7016 35.3911 99.5205 35.57 99.5205 35.7915V36.6605C99.5205 36.8906 99.7102 37.0695 99.9345 37.0695H102.582V42.4284C102.582 42.8544 102.642 43.2037 103.074 43.2037H103.832C104.264 43.2037 104.281 42.8544 104.281 42.4284V37.0695H107.101C107.299 37.0695 107.455 36.9076 107.455 36.7117V35.7489C107.455 35.553 107.291 35.3911 107.092 35.3911H107.101Z" fill="#A0A0A0"/>
<path d="M145.236 35.3911H138.061C137.836 35.3911 137.655 35.57 137.655 35.7915V36.6605C137.655 36.8906 137.845 37.0695 138.069 37.0695H140.717V42.4284C140.717 42.8544 140.777 43.2037 141.208 43.2037H141.967C142.398 43.2037 142.416 42.8544 142.416 42.4284V37.0695H145.236C145.434 37.0695 145.598 36.9076 145.598 36.7117V35.7489C145.598 35.553 145.434 35.3911 145.236 35.3911Z" fill="#A0A0A0"/>
<path d="M69.535 35.3994H68.9572C68.5174 35.3738 68.4139 35.4164 68.2846 35.655L68.1811 35.8424L68.1121 35.9702L67.9482 36.2684C67.9482 36.2684 67.9482 36.2684 67.9482 36.2769L65.3697 40.9542L62.5755 35.9276C62.5755 35.9276 62.5755 35.9191 62.5669 35.9105L62.4203 35.6464C62.2909 35.4164 62.1012 35.3908 61.7821 35.3823H61.1439C60.661 35.3908 60.6179 35.7742 60.7472 36.0128L61.256 36.9499C61.256 36.9499 61.2733 36.984 61.2819 37.0011L64.4555 42.6922C64.6366 42.9989 64.9643 43.2119 65.3352 43.2119C65.706 43.2119 66.0337 42.9989 66.2148 42.6922L69.4143 37.0181L69.949 35.9872C70.0783 35.7572 70.0611 35.3823 69.535 35.3994Z" fill="#A0A0A0"/>
<path d="M82.0395 41.585L78.8831 35.9279C78.702 35.6127 78.3829 35.4082 78.0121 35.4082C77.6413 35.4082 77.3222 35.6127 77.1411 35.9279L73.9933 41.6191C73.9933 41.6191 73.9761 41.6531 73.9675 41.6702L73.4587 42.6073C73.3293 42.8374 73.4587 43.1015 73.6829 43.2378H74.4677C74.873 43.2378 74.9851 43.2037 75.1145 42.9737L75.2611 42.7096C75.2611 42.7096 75.2611 42.7011 75.2697 42.6925L75.8389 41.6531H78.6934C78.8486 41.6531 79.116 41.4316 78.9349 41.0738L78.5295 40.3496C78.4951 40.2815 78.4261 40.2389 78.3484 40.2389H76.6064L78.0207 37.6659L80.5734 42.3432C80.5734 42.3432 80.5734 42.3432 80.5734 42.3518L80.7373 42.65L80.8063 42.7777L80.9098 42.9652C81.0391 43.1952 81.272 43.2293 81.6169 43.2293L82.3758 43.2463C82.5483 43.2378 82.807 42.9141 82.6259 42.6159L82.0136 41.585H82.0395Z" fill="#A0A0A0"/>
<path d="M132.895 41.585L129.739 35.9279C129.558 35.6127 129.238 35.4082 128.868 35.4082C128.497 35.4082 128.178 35.6127 127.997 35.9279L124.849 41.6191C124.849 41.6191 124.832 41.6531 124.823 41.6702L124.314 42.6073C124.185 42.8374 124.314 43.1015 124.538 43.2378H125.323C125.728 43.2378 125.841 43.2037 125.97 42.9737L126.117 42.7096C126.117 42.7096 126.117 42.7011 126.125 42.6925L126.694 41.6531H129.549C129.704 41.6531 129.971 41.4316 129.79 41.0738L129.385 40.3496C129.351 40.2815 129.282 40.2389 129.204 40.2389H127.462L128.876 37.6659L131.429 42.3432C131.429 42.3432 131.429 42.3432 131.429 42.3518L131.593 42.6585L131.662 42.7863L131.765 42.9737C131.895 43.2037 132.127 43.2378 132.481 43.2378L133.24 43.2548C133.412 43.2463 133.671 42.9226 133.49 42.6244L132.878 41.585H132.895Z" fill="#A0A0A0"/>
<path d="M158.94 42.6156L158.328 41.5762L155.171 35.9191C154.99 35.6039 154.671 35.3994 154.3 35.3994C153.929 35.3994 153.61 35.6039 153.429 35.9191L150.281 41.6103C150.281 41.6103 150.264 41.6444 150.256 41.6614L149.747 42.5986C149.617 42.8286 149.747 43.0927 149.971 43.229H150.756C151.161 43.229 151.273 43.1949 151.403 42.9649L151.549 42.7008C151.549 42.7008 151.549 42.6923 151.558 42.6838L152.127 41.6444H154.981C155.137 41.6444 155.404 41.4228 155.223 41.065L154.818 40.3408C154.783 40.2727 154.714 40.2301 154.637 40.2301H152.894L154.309 37.6571L156.862 42.3345C156.862 42.3345 156.862 42.3345 156.862 42.343L157.025 42.6497L157.094 42.7775L157.198 42.9649C157.327 43.1949 157.56 43.229 157.905 43.229L158.664 43.2461C158.836 43.2375 159.095 42.9138 158.914 42.6156H158.94Z" fill="#A0A0A0"/>
<path d="M141.476 29.751V22.2366C141.89 22.0833 142.304 21.9214 142.718 21.751C143.192 21.5551 143.244 21.4869 143.235 21.112C143.235 20.8053 143.244 20.0556 143.244 19.5615C143.244 19.1951 143.02 19.0758 142.692 19.161C142.295 19.2633 141.881 19.3655 141.467 19.4677V14.9523H142.977C143.14 14.9523 143.27 14.8245 143.27 14.6626V12.7372C143.27 12.5753 143.14 12.4475 142.977 12.4475H141.467V10.1813C141.467 10.0194 141.338 9.8916 141.174 9.8916H138.828C138.665 9.8916 138.535 10.0194 138.535 9.90864V12.4475H137.095C136.931 12.4475 136.802 12.5753 136.802 12.7372V14.6626C136.802 14.8245 136.931 14.9523 137.095 14.9523H138.535V20.0812C138.061 20.1578 137.595 20.2175 137.129 20.2516C137.026 20.2601 136.922 20.2686 136.871 20.3538C136.793 20.4816 136.81 20.6861 136.81 20.6861V22.6712C136.81 22.6712 136.767 23.1653 136.897 23.2931C136.966 23.3612 137.164 23.4038 137.336 23.3698C137.742 23.2931 138.138 23.1994 138.535 23.1057V28.4901C138.509 28.6009 138.458 28.6861 138.328 28.7968C138.251 28.8565 138.138 28.8991 137.992 28.9161L137.224 28.9417C137.06 28.9417 136.931 29.0695 136.931 29.2313V31.1568C136.931 31.3186 137.06 31.4464 137.224 31.4464H139.863L139.898 31.4294C140.769 31.3357 141.441 30.4837 141.467 29.8107V29.7936C141.467 29.7936 141.467 29.7766 141.467 29.7681C141.467 29.7595 141.467 29.7425 141.467 29.734L141.476 29.751Z" fill="#19140F"/>
<path d="M158.361 19.1268H153.98V17.3121H157.792C158.033 17.3121 158.223 17.1162 158.223 16.8861V10.2663C158.223 10.0278 158.025 9.84033 157.792 9.84033L146.426 9.92553C146.426 9.92553 146.365 9.90849 146.331 9.90849H143.985C143.821 9.90849 143.692 10.0363 143.692 10.1982V23.0714C143.562 25.3632 143.131 26.8797 142.234 28.8904V31.4548H142.303C142.898 31.4037 146.279 27.6209 146.615 22.0576L146.633 21.6486H151.057V23.4719H147.141C146.969 23.4719 146.822 23.6167 146.822 23.7871V31.2077C146.822 31.3781 146.969 31.523 147.141 31.523H157.913C158.085 31.523 158.232 31.3781 158.232 31.2077V23.7871C158.232 23.6167 158.085 23.4719 157.913 23.4719H153.997V21.6486H158.378C158.542 21.6486 158.672 21.5208 158.672 21.359V19.4335C158.672 19.2716 158.542 19.1438 158.378 19.1438L158.361 19.1268ZM155.222 26.2408V28.7626C155.222 28.8819 155.127 28.9756 155.006 28.9756H149.979C149.858 28.9756 149.763 28.8819 149.763 28.7626V26.2408C149.763 26.1215 149.858 26.0278 149.979 26.0278H155.006C155.127 26.0278 155.222 26.1215 155.222 26.2408ZM147.124 12.4303H154.696C154.972 12.4303 155.205 12.6604 155.205 12.933V14.4154C155.205 14.688 154.972 14.9181 154.696 14.9181H147.124C146.883 14.9181 146.684 14.7477 146.633 14.5262V12.8307C146.676 12.6007 146.883 12.4303 147.124 12.4303ZM146.641 19.1268V17.3121H151.048V19.1268H146.641Z" fill="#19140F"/>
<path d="M114.397 10.4023H112.051C111.889 10.4023 111.758 10.532 111.758 10.692V13.0094C111.758 13.1694 111.889 13.299 112.051 13.299H114.397C114.559 13.299 114.69 13.1694 114.69 13.0094V10.692C114.69 10.532 114.559 10.4023 114.397 10.4023Z" fill="#19140F"/>
<path d="M122.58 10.4023H120.235C120.073 10.4023 119.941 10.532 119.941 10.692V13.0094C119.941 13.1694 120.073 13.299 120.235 13.299H122.58C122.742 13.299 122.874 13.1694 122.874 13.0094V10.692C122.874 10.532 122.742 10.4023 122.58 10.4023Z" fill="#19140F"/>
<path d="M122.132 29.1031C122.046 29.1031 121.951 29.1031 121.865 29.1031C121.123 29.1031 120.382 28.9839 119.692 28.7794C121.003 27.6633 121.908 26.232 122.072 24.5536H123.176C123.34 24.5536 123.469 24.4258 123.469 24.264V22.3385C123.469 22.1766 123.34 22.0488 123.176 22.0488H115.182V21.3502C115.182 21.1883 115.052 21.0605 114.888 21.0605H112.543C112.379 21.0605 112.249 21.1883 112.249 21.3502V22.0488H111.646C111.482 22.0488 111.353 22.1766 111.353 22.3385V24.264C111.353 24.4258 111.482 24.5536 111.646 24.5536H112.482C112.698 26.249 113.431 27.6378 114.509 28.7112C113.707 28.9583 112.87 29.1031 112.068 29.1031C111.991 29.1031 111.913 29.1031 111.835 29.1031C111.585 29.1031 111.378 29.2991 111.378 29.5462V30.969C111.378 31.2075 111.577 31.412 111.818 31.412C111.896 31.412 111.982 31.412 112.06 31.412C113.716 31.412 115.44 31.0542 116.984 30.4067C118.441 31.0712 120.132 31.412 121.857 31.412C121.934 31.412 122.02 31.412 122.098 31.412C122.348 31.412 122.546 31.2075 122.546 30.9604V29.4865C122.546 29.265 122.357 29.0861 122.132 29.0946V29.1031ZM115.354 24.5621H119.2C119.14 25.5845 118.321 26.6324 117.122 27.4588C116.113 26.6495 115.44 25.6186 115.354 24.5621Z" fill="#19140F"/>
<path d="M132.714 29.0521C131.636 28.9755 130.644 28.5239 129.782 27.8338C131.187 26.164 132.041 24.017 132.093 21.6144C132.11 21.4526 132.11 21.3333 132.11 21.2907V14.9435H132.86C133.024 14.9435 133.154 14.8072 133.154 14.6538V12.7284C133.154 12.5665 133.024 12.4387 132.86 12.4387H128.1C128.16 12.2257 128.221 11.9957 128.281 11.7657C128.402 11.263 128.462 10.8455 128.454 10.2918C128.454 10.0617 128.264 9.88281 128.031 9.88281H125.332C124.987 9.88281 124.719 10.1725 124.745 10.5048C124.754 10.6496 124.762 10.8029 124.762 10.9563C124.762 12.4302 124.193 13.7763 123.262 14.7902V14.1597C123.262 13.9978 123.133 13.87 122.969 13.87H118.777V10.198C118.777 10.0362 118.648 9.90837 118.484 9.90837H116.139C115.975 9.90837 115.845 10.0362 115.845 10.198V13.87H111.628C111.464 13.87 111.335 13.9978 111.335 14.1597V16.4771C111.335 16.6389 111.464 16.7667 111.628 16.7667H113.293C113.293 16.7667 113.293 16.7923 113.293 16.8093C113.293 17.6187 112.378 18.1725 111.723 18.5559C111.585 18.6325 111.464 18.6922 111.378 18.8029C111.361 18.8285 111.344 18.8881 111.335 18.9648V20.3791C111.344 20.4472 111.369 20.5069 111.395 20.541C111.464 20.6262 111.585 20.6602 111.697 20.6688C111.818 20.6858 111.87 20.6858 111.99 20.6858C113.715 20.6858 115.595 19.3312 115.845 17.6613V20.4728C115.845 20.6347 115.975 20.7625 116.139 20.7625H118.484C118.648 20.7625 118.777 20.6347 118.777 20.4728V17.6443C119.019 19.3141 120.908 20.6858 122.632 20.6858C122.753 20.6858 122.813 20.6858 122.926 20.6688C123.046 20.6517 123.158 20.6262 123.227 20.541C123.253 20.5069 123.279 20.4558 123.288 20.3961V18.9478C123.279 18.8796 123.271 18.8285 123.245 18.8029C123.158 18.6922 123.029 18.6325 122.9 18.5559C122.244 18.1725 121.33 17.6187 121.33 16.8093C121.33 16.7923 121.33 16.7838 121.33 16.7667H122.831V16.903C122.831 16.903 122.788 17.1331 122.969 17.3205C123.15 17.5079 123.374 17.4227 123.633 17.3546C123.745 17.3205 123.857 17.2864 123.96 17.2524V21.7678C123.96 21.8189 123.96 21.8615 123.96 21.8956C123.96 21.9808 123.96 22.066 123.96 22.1512V22.2449C123.96 22.2449 123.96 22.2449 123.96 22.2534C124.038 24.3407 124.788 26.2321 126.004 27.7401C125.185 28.3535 124.236 28.7965 123.227 28.984C123.003 29.0266 122.839 29.2311 122.839 29.4611V30.9265C122.839 31.1821 123.064 31.3695 123.314 31.3354C125.03 31.0969 126.599 30.4749 127.91 29.5463C129.281 30.526 130.92 31.1735 132.705 31.378C132.947 31.4036 133.154 31.2247 133.154 30.9861C133.154 30.6624 133.154 29.8786 133.154 29.5889C133.154 29.0351 132.757 29.0777 132.679 29.0777L132.714 29.0521ZM127.039 14.9435H128.824C128.824 14.9435 129.178 14.9776 129.178 15.3695V22.066C129.074 23.3525 128.626 24.5878 127.936 25.6613C127.289 24.5282 126.918 23.2417 126.918 21.9978C126.918 21.9297 126.918 21.87 126.901 21.8274V17.0308C126.901 16.869 126.772 16.7412 126.608 16.7412H125.142C125.944 16.2896 126.556 15.6847 127.031 14.952L127.039 14.9435Z" fill="#19140F"/>
<path d="M107.308 29.8531H98.5372V29.0097H105.937C106.161 29.0097 106.351 28.8223 106.351 28.6007V27.7828C106.351 27.5613 106.161 27.3739 105.937 27.3739H98.5372V26.5134H105.117C105.264 26.5134 105.376 26.3941 105.376 26.2493V20.1748C105.376 20.0299 105.255 19.9106 105.117 19.9106H88.4472C88.3006 19.9106 88.1885 20.0299 88.1885 20.1748V26.2493C88.1885 26.3941 88.3092 26.5134 88.4472 26.5134H95.0273V27.3739H87.6279C87.4037 27.3739 87.214 27.5613 87.214 27.7828V28.6007C87.214 28.8223 87.4037 29.0097 87.6279 29.0097H95.0273V29.8531H86.2567C86.0325 29.8531 85.8428 30.0406 85.8428 30.2621V31.08C85.8428 31.3015 86.0325 31.4889 86.2567 31.4889H107.299C107.523 31.4889 107.713 31.3015 107.713 31.08V30.2621C107.713 30.0406 107.523 29.8531 107.299 29.8531H107.308ZM102.125 24.5368C102.125 24.7158 101.978 24.8606 101.797 24.8606H98.5372V24.0001H101.797C101.978 24.0001 102.125 24.1449 102.125 24.3238V24.5368ZM101.797 21.5464C101.978 21.5464 102.125 21.6913 102.125 21.8702V22.0832C102.125 22.2621 101.978 22.4069 101.797 22.4069H98.5372V21.5464H101.797ZM91.5001 21.8702C91.5001 21.6913 91.6467 21.5464 91.8278 21.5464H95.0445V22.4069H91.8278C91.6467 22.4069 91.5001 22.2621 91.5001 22.0832V21.8702ZM91.8278 24.8606C91.6467 24.8606 91.5001 24.7158 91.5001 24.5368V24.3238C91.5001 24.1449 91.6467 24.0001 91.8278 24.0001H95.0445V24.8606H91.8278Z" fill="#19140F"/>
<path d="M107.317 17.3975H86.2655C86.0369 17.3975 85.8516 17.5806 85.8516 17.8064V18.6158C85.8516 18.8416 86.0369 19.0247 86.2655 19.0247H107.317C107.545 19.0247 107.731 18.8416 107.731 18.6158V17.8064C107.731 17.5806 107.545 17.3975 107.317 17.3975Z" fill="#19140F"/>
<path d="M88.2919 16.4944H105.298C105.445 16.4944 105.557 16.3751 105.557 16.2303V10.1557C105.557 10.0109 105.436 9.8916 105.298 9.8916H88.2919C88.1453 9.8916 88.0332 10.0109 88.0332 10.1557V16.2303C88.0332 16.3751 88.1539 16.4944 88.2919 16.4944ZM91.3189 11.8341C91.3189 11.6552 91.4655 11.5103 91.6466 11.5103H101.944C102.125 11.5103 102.271 11.6552 102.271 11.8341V12.0471C102.271 12.226 102.125 12.3708 101.944 12.3708H91.6466C91.4655 12.3708 91.3189 12.226 91.3189 12.0471V11.8341ZM91.3189 14.3304C91.3189 14.1515 91.4655 14.0066 91.6466 14.0066H101.944C102.125 14.0066 102.271 14.1515 102.271 14.3304V14.5434C102.271 14.7223 102.125 14.8671 101.944 14.8671H91.6466C91.4655 14.8671 91.3189 14.7223 91.3189 14.5434V14.3304Z" fill="#19140F"/>
<path d="M63.7749 16.043H61.1274C60.9721 16.043 60.8428 16.1708 60.8428 16.3241V20.2176C60.8428 20.371 60.9721 20.4988 61.1274 20.4988H63.7059C63.8612 20.4988 64.0509 20.3284 64.0509 20.175V16.3241C64.0509 16.1708 63.9388 16.043 63.7835 16.043H63.7749Z" fill="#19140F"/>
<path d="M63.749 21.606H61.1274C60.9721 21.606 60.8428 21.7338 60.8428 21.8871V31.1651C60.8428 31.3184 60.9721 31.4462 61.1274 31.4462H63.7404C63.8957 31.4462 64.0164 31.3184 64.0164 31.1651V21.8871C64.0164 21.7338 63.9043 21.606 63.749 21.606Z" fill="#19140F"/>
<path d="M81.5318 20.4731H80.0916V15.4635C80.0916 15.1568 79.8415 14.9097 79.5311 14.9097H68.3975C68.7425 14.6797 69.2082 14.2963 69.6911 13.7936H81.0489C81.2041 13.7936 81.3248 13.6743 81.3248 13.5125V11.5615C81.3248 11.4081 81.1955 11.2888 81.0489 11.2888H70.8726C70.8898 11.1696 70.933 10.1728 70.933 10.1728C70.933 10.0194 70.8036 9.8916 70.6484 9.8916H68.1474C67.9922 9.8916 67.8628 10.0194 67.8628 10.1728V10.8714C67.8628 12.03 66.5692 13.1546 65.4568 13.3591C65.4568 13.3591 65.0342 13.3762 65.0342 13.7169V15.1057C65.0342 15.259 65.1635 15.3868 65.3101 15.3868L66.5951 15.1823V20.4646H65.7413C65.5861 20.4646 65.4568 20.5838 65.4568 20.7457V22.6882C65.4568 22.8415 65.5861 22.9693 65.7413 22.9693H66.5951V27.9448C66.5951 28.2856 66.828 28.3879 67.1384 28.3879H77.1163V28.7627C77.1163 28.9757 77.1163 29.2228 76.78 29.2228H74.2101C74.0548 29.2228 73.822 29.325 73.8737 29.5636C73.9255 29.8021 74.6758 31.0119 74.6758 31.0119C74.762 31.1653 74.8482 31.4209 75.1328 31.4209H79.6087C80.0399 31.4209 80.0485 31.2079 80.0485 30.9779L80.0744 28.3879L80.954 28.4049C81.1092 28.4049 81.2903 28.2686 81.2903 28.1152V26.1983C81.2817 26.045 81.1179 25.8831 80.9626 25.8831H80.0744V22.9608H81.5059C81.6612 22.9608 81.7905 22.833 81.7905 22.6797V20.7372C81.7905 20.5838 81.6784 20.456 81.5232 20.456L81.5318 20.4731ZM77.1508 25.619C77.1508 25.7723 77.0215 25.9001 76.8663 25.9001H75.0294V24.1365C75.0294 23.8554 74.9172 23.7446 74.6326 23.7446H72.4163C72.2611 23.7446 72.08 23.8639 72.08 24.0684V25.9001H69.9067C69.8205 25.9001 69.5531 25.8234 69.5531 25.6275V23.3101C69.5531 23.1568 69.6739 23.0205 69.8377 23.0205H76.8663C77.0215 23.0205 77.1508 23.2249 77.1508 23.3783V25.619ZM77.1336 20.4731H75.038V18.6925C75.038 18.4965 74.9172 18.3261 74.762 18.3261H72.3645C72.2093 18.3261 72.08 18.4965 72.08 18.6499V20.4731H69.5359V17.7979C69.5359 17.5082 69.7774 17.3719 69.9326 17.3719L76.8318 17.3975C76.987 17.3975 77.1508 17.5338 77.1508 17.7382L77.1336 20.4731Z" fill="#19140F"/>
<path d="M61.1184 14.9353H63.7401C63.8953 14.9353 64.0161 14.816 64.0161 14.6541V10.7606C64.0161 10.6073 63.8695 10.4795 63.7142 10.4795H61.1098C60.9546 10.4795 60.8252 10.6073 60.8252 10.7606V14.6541C60.8252 14.8075 60.9546 14.9353 61.1098 14.9353H61.1184Z" fill="#19140F"/>
<path d="M34.323 44.7455L34.2626 44.6518C34.2109 44.5411 34.1591 44.4388 34.1074 44.3451L26.915 32.1364C26.5097 31.4718 25.768 31.0288 24.9315 31.0288C24.095 31.0288 23.3447 31.4804 22.9394 32.1534L15.7211 44.2599C15.7211 44.2599 15.7039 44.2855 15.6952 44.3025L15.6435 44.3877C15.6004 44.4644 15.5573 44.5496 15.5141 44.6263L15.4365 44.7455C14.9105 45.606 15.1864 46.7391 16.0574 47.2588L16.8508 47.7359C17.7219 48.2556 18.8689 47.983 19.3949 47.1225L19.8779 46.3387C19.9124 46.2876 19.9382 46.2365 19.9641 46.1768L24.897 37.9383L29.7782 46.1002C29.8127 46.1768 29.8472 46.262 29.8989 46.3387L30.2007 46.8329C30.2439 46.9095 30.2956 46.9862 30.3387 47.0544L30.3818 47.1225C30.9079 47.983 32.0549 48.2556 32.9259 47.7359L33.7193 47.2588C34.5903 46.7391 34.8663 45.606 34.3402 44.7455H34.323Z" fill="url(#paint0_radial_1_798)"/>
<path d="M47.7674 26.2578H47.6553C47.5346 26.2492 47.4138 26.2407 47.3017 26.2407L33.0032 26.2918C32.2184 26.3089 31.4595 26.7178 31.0369 27.442C30.6144 28.1662 30.6402 29.0267 31.0197 29.7082L38.031 41.9425C38.031 41.9596 38.0482 41.9681 38.0568 41.9851L38.1086 42.0788C38.1517 42.1555 38.2034 42.2322 38.2552 42.3089L38.3242 42.4367C38.8157 43.3227 39.9455 43.6465 40.8424 43.1609L41.653 42.7178C42.5499 42.2322 42.8776 41.1161 42.3861 40.2301L41.9376 39.4292C41.9117 39.3781 41.8773 39.327 41.8428 39.2759L37.091 30.9436L46.6808 30.8499C46.767 30.8584 46.8533 30.8669 46.9481 30.8669L47.526 30.8499C47.6122 30.8499 47.7071 30.8499 47.7933 30.8499H47.8709C48.8885 30.8243 49.7078 29.9809 49.6819 28.9755L49.6647 28.0639C49.6388 27.0586 48.785 26.2492 47.7674 26.2748V26.2578Z" fill="url(#paint1_radial_1_798)"/>
<path d="M38.2819 5.51233L38.2302 5.61457C38.1612 5.70829 38.0922 5.81052 38.0405 5.90424L30.9343 18.1641C30.5549 18.8457 30.5376 19.6976 30.9602 20.4218C31.3828 21.146 32.1503 21.5549 32.9437 21.572L47.1732 21.6912C47.1905 21.6912 47.2077 21.6912 47.2164 21.6912H47.3198C47.4061 21.6912 47.5009 21.6912 47.5958 21.6827H47.7424C48.76 21.7083 49.6138 20.9074 49.6397 19.8936L49.6569 18.982C49.6828 17.9767 48.8635 17.1332 47.8459 17.1076L46.9231 17.0906C46.8628 17.0906 46.8024 17.0906 46.742 17.0906L37.0573 16.9884L41.766 8.73278C41.8178 8.66462 41.8695 8.58795 41.9126 8.51127L42.1886 8.00861C42.2317 7.93193 42.2748 7.85525 42.3179 7.77858L42.3524 7.71042C42.844 6.82437 42.5077 5.70829 41.6194 5.22266L40.8088 4.77964C39.9119 4.29402 38.7821 4.62629 38.2906 5.50381L38.2819 5.51233Z" fill="url(#paint2_radial_1_798)"/>
<path d="M15.359 3.25477L15.4194 3.34848C15.4711 3.45924 15.5229 3.56147 15.5746 3.65519L22.767 15.8639C23.1723 16.5285 23.914 16.9715 24.7505 16.9715C25.5871 16.9715 26.3373 16.5199 26.7427 15.8469L33.9609 3.74039C33.9609 3.74039 33.9782 3.71483 33.9868 3.69779L34.0385 3.61259C34.0817 3.53591 34.1248 3.45072 34.1679 3.37404L34.2455 3.25477C34.7716 2.39428 34.4956 1.26115 33.6246 0.741453L32.8312 0.26435C31.9602 -0.255352 30.8132 0.0172783 30.2871 0.877768L29.8042 1.66158C29.7697 1.7127 29.7438 1.76382 29.7179 1.82346L24.785 10.062L19.9039 1.90013C19.8694 1.82346 19.8349 1.73826 19.7831 1.66158L19.4813 1.16744C19.4382 1.09076 19.3864 1.01408 19.3433 0.945926L19.3002 0.877768C18.7741 0.0172783 17.6271 -0.255352 16.7561 0.26435L15.9627 0.741453C15.0917 1.26115 14.8157 2.39428 15.3418 3.25477H15.359Z" fill="url(#paint3_radial_1_798)"/>
<path d="M1.91414 21.7426H2.02625C2.14699 21.7511 2.26772 21.7596 2.37983 21.7596L16.6784 21.7085C17.4631 21.6914 18.2221 21.2825 18.6446 20.5583C19.0672 19.8342 19.0413 18.9737 18.6619 18.2921L11.6506 6.05779C11.6506 6.04075 11.6333 6.03223 11.6247 6.0152L11.573 5.92148C11.5299 5.8448 11.4781 5.76812 11.4264 5.69145L11.3574 5.56365C10.8658 4.6776 9.73607 4.35385 8.83918 4.83948L8.02853 5.2825C7.13164 5.76812 6.80393 6.8842 7.29549 7.77025L7.74394 8.57111C7.76981 8.62222 7.80431 8.67334 7.8388 8.72446L12.5906 17.0567L3.00076 17.1504C2.91452 17.1419 2.82828 17.1334 2.73342 17.1334L2.15561 17.1504C2.06937 17.1504 1.97451 17.1504 1.88827 17.1504H1.81065C0.793024 17.1845 -0.0262521 18.028 -0.000380225 19.0418L0.0168677 19.9534C0.0427396 20.9588 0.896512 21.7681 1.91414 21.7426Z" fill="url(#paint4_radial_1_798)"/>
<path d="M11.4002 42.488L11.4519 42.3858C11.5209 42.292 11.5899 42.1898 11.6417 42.0961L18.7478 29.8362C19.1273 29.1547 19.1445 28.3027 18.7219 27.5785C18.2994 26.8543 17.5318 26.4454 16.7384 26.4284L2.5175 26.3091C2.50025 26.3091 2.483 26.3091 2.47438 26.3091H2.37089C2.28465 26.3091 2.18979 26.3091 2.09493 26.3176H1.94832C0.930692 26.292 0.0769193 27.0929 0.0510474 28.1067L0.0337995 29.0183C0.00792757 30.0237 0.827204 30.8671 1.84483 30.8927L2.7676 30.9097C2.82796 30.9097 2.88833 30.9097 2.9487 30.9097L12.6334 31.012L7.92473 39.2675C7.87298 39.3357 7.82124 39.4124 7.77812 39.4891L7.50215 39.9917C7.45903 40.0684 7.41591 40.1451 7.37279 40.2218L7.3383 40.2899C6.84673 41.176 7.18306 42.292 8.07133 42.7777L8.88199 43.2207C9.77888 43.7063 10.9086 43.374 11.4002 42.4965V42.488Z" fill="url(#paint5_radial_1_798)"/>
</g>
<defs>
<radialGradient id="paint0_radial_1_798" cx="0" cy="0" r="1" gradientUnits="userSpaceOnUse" gradientTransform="translate(24.727 23.6565) scale(24.7299 24.4309)">
<stop stop-color="#FFC80F"/>
<stop offset="0.33" stop-color="#FFA512"/>
<stop offset="0.77" stop-color="#FF7D17"/>
<stop offset="1" stop-color="#FF6E19"/>
</radialGradient>
<radialGradient id="paint1_radial_1_798" cx="0" cy="0" r="1" gradientUnits="userSpaceOnUse" gradientTransform="translate(24.7267 23.6564) scale(24.7299 24.4309)">
<stop stop-color="#FFC80F"/>
<stop offset="0.33" stop-color="#FFA512"/>
<stop offset="0.77" stop-color="#FF7D17"/>
<stop offset="1" stop-color="#FF6E19"/>
</radialGradient>
<radialGradient id="paint2_radial_1_798" cx="0" cy="0" r="1" gradientUnits="userSpaceOnUse" gradientTransform="translate(24.7276 23.6565) scale(24.7299 24.4309)">
<stop stop-color="#FFC80F"/>
<stop offset="0.33" stop-color="#FFA512"/>
<stop offset="0.77" stop-color="#FF7D17"/>
<stop offset="1" stop-color="#FF6E19"/>
</radialGradient>
<radialGradient id="paint3_radial_1_798" cx="0" cy="0" r="1" gradientUnits="userSpaceOnUse" gradientTransform="translate(24.7272 23.6566) scale(24.7299 24.4309)">
<stop stop-color="#FFC80F"/>
<stop offset="0.33" stop-color="#FFA512"/>
<stop offset="0.77" stop-color="#FF7D17"/>
<stop offset="1" stop-color="#FF6E19"/>
</radialGradient>
<radialGradient id="paint4_radial_1_798" cx="0" cy="0" r="1" gradientUnits="userSpaceOnUse" gradientTransform="translate(24.727 23.6567) scale(24.7299 24.4309)">
<stop stop-color="#FFC80F"/>
<stop offset="0.33" stop-color="#FFA512"/>
<stop offset="0.77" stop-color="#FF7D17"/>
<stop offset="1" stop-color="#FF6E19"/>
</radialGradient>
<radialGradient id="paint5_radial_1_798" cx="0" cy="0" r="1" gradientUnits="userSpaceOnUse" gradientTransform="translate(24.7267 23.6566) scale(24.7299 24.4309)">
<stop stop-color="#FFC80F"/>
<stop offset="0.33" stop-color="#FFA512"/>
<stop offset="0.77" stop-color="#FF7D17"/>
<stop offset="1" stop-color="#FF6E19"/>
</radialGradient>
<clipPath id="clip0_1_798">
<rect width="159" height="48" fill="white"/>
</clipPath>
</defs>
</svg>
